<svg width="1440" height="552" viewBox="0 0 1440 552" fill="none" xmlns="http://www.w3.org/2000/svg">
<mask id="mask0_3_2127" style="mask-type:alpha" maskUnits="userSpaceOnUse" x="-152" y="208" width="1152" height="60">
<rect width="1152" height="60" transform="translate(-152 208)" fill="url(#paint0_linear_3_2127)"/>
</mask>
<g mask="url(#mask0_3_2127)">
<path d="M19.528 220C19.528 213.373 24.9005 208 31.528 208H127.528C134.155 208 139.528 213.373 139.528 220V256C139.528 262.627 134.155 268 127.528 268H31.528C24.9005 268 19.528 262.627 19.528 256V220Z" fill="white"/>

<path d="M151.528 220C151.528 213.373 156.901 208 163.528 208H265.528C272.155 208 277.528 213.373 277.528 220V256C277.528 262.627 272.155 268 265.528 268H163.528C156.901 268 151.528 262.627 151.528 256V220Z" fill="white"/>
<path d="M167.528 243.784H178.728V232.584H167.528V243.784Z" fill="black"/>
<path d="M199.153 235.42C199.092 234.883 198.842 234.466 198.403 234.17C197.964 233.871 197.411 233.722 196.744 233.722C196.267 233.722 195.854 233.797 195.505 233.949C195.157 234.097 194.886 234.301 194.693 234.562C194.503 234.82 194.409 235.114 194.409 235.443C194.409 235.72 194.473 235.958 194.602 236.159C194.734 236.36 194.907 236.528 195.119 236.665C195.335 236.797 195.566 236.909 195.812 237C196.058 237.087 196.295 237.159 196.522 237.216L197.659 237.511C198.03 237.602 198.411 237.725 198.801 237.881C199.191 238.036 199.553 238.241 199.886 238.494C200.219 238.748 200.488 239.062 200.693 239.438C200.901 239.812 201.005 240.261 201.005 240.784C201.005 241.443 200.835 242.028 200.494 242.54C200.157 243.051 199.666 243.455 199.022 243.75C198.382 244.045 197.607 244.193 196.698 244.193C195.827 244.193 195.073 244.055 194.437 243.778C193.801 243.502 193.303 243.11 192.943 242.602C192.583 242.091 192.384 241.485 192.346 240.784H194.107C194.142 241.205 194.278 241.555 194.517 241.835C194.759 242.112 195.068 242.318 195.443 242.455C195.822 242.587 196.236 242.653 196.687 242.653C197.183 242.653 197.625 242.576 198.011 242.42C198.401 242.261 198.708 242.042 198.931 241.761C199.155 241.477 199.267 241.146 199.267 240.767C199.267 240.422 199.168 240.14 198.971 239.92C198.778 239.701 198.515 239.519 198.181 239.375C197.852 239.231 197.479 239.104 197.062 238.994L195.687 238.619C194.755 238.366 194.017 237.992 193.471 237.5C192.929 237.008 192.659 236.356 192.659 235.545C192.659 234.875 192.84 234.29 193.204 233.79C193.568 233.29 194.06 232.902 194.681 232.625C195.303 232.345 196.003 232.205 196.784 232.205C197.572 232.205 198.267 232.343 198.869 232.619C199.475 232.896 199.952 233.277 200.301 233.761C200.649 234.242 200.831 234.795 200.846 235.42H199.153ZM207.041 235.273V236.636H202.274V235.273H207.041ZM203.552 233.182H205.251V241.438C205.251 241.767 205.3 242.015 205.399 242.182C205.497 242.345 205.624 242.456 205.779 242.517C205.938 242.574 206.111 242.602 206.296 242.602C206.433 242.602 206.552 242.593 206.654 242.574C206.757 242.555 206.836 242.54 206.893 242.528L207.2 243.932C207.101 243.97 206.961 244.008 206.779 244.045C206.598 244.087 206.37 244.11 206.098 244.114C205.651 244.121 205.234 244.042 204.848 243.875C204.461 243.708 204.149 243.451 203.91 243.102C203.671 242.754 203.552 242.316 203.552 241.79V233.182ZM214.448 240.381V235.273H216.153V244H214.482V242.489H214.392C214.191 242.955 213.869 243.343 213.426 243.653C212.986 243.96 212.439 244.114 211.784 244.114C211.223 244.114 210.727 243.991 210.295 243.744C209.867 243.494 209.53 243.125 209.284 242.636C209.041 242.148 208.92 241.544 208.92 240.824V235.273H210.619V240.619C210.619 241.214 210.784 241.687 211.113 242.04C211.443 242.392 211.871 242.568 212.397 242.568C212.715 242.568 213.032 242.489 213.346 242.33C213.664 242.17 213.928 241.93 214.136 241.608C214.348 241.286 214.452 240.877 214.448 240.381ZM221.703 244.17C220.998 244.17 220.369 243.991 219.816 243.631C219.267 243.267 218.835 242.75 218.521 242.08C218.21 241.405 218.055 240.597 218.055 239.653C218.055 238.71 218.212 237.903 218.527 237.233C218.845 236.562 219.28 236.049 219.833 235.693C220.386 235.337 221.013 235.159 221.714 235.159C222.256 235.159 222.691 235.25 223.021 235.432C223.354 235.61 223.612 235.818 223.794 236.057C223.979 236.295 224.123 236.506 224.225 236.688H224.328V232.364H226.027V244H224.367V242.642H224.225C224.123 242.828 223.975 243.04 223.782 243.278C223.593 243.517 223.331 243.725 222.998 243.903C222.665 244.081 222.233 244.17 221.703 244.17ZM222.078 242.722C222.566 242.722 222.979 242.593 223.316 242.335C223.657 242.074 223.915 241.712 224.089 241.25C224.267 240.788 224.356 240.25 224.356 239.636C224.356 239.03 224.269 238.5 224.095 238.045C223.92 237.591 223.665 237.237 223.328 236.983C222.991 236.729 222.574 236.602 222.078 236.602C221.566 236.602 221.14 236.735 220.799 237C220.458 237.265 220.201 237.627 220.027 238.085C219.856 238.544 219.771 239.061 219.771 239.636C219.771 240.22 219.858 240.744 220.032 241.21C220.206 241.676 220.464 242.045 220.805 242.318C221.15 242.587 221.574 242.722 222.078 242.722ZM232.213 244.176C231.353 244.176 230.612 243.992 229.991 243.625C229.374 243.254 228.896 242.733 228.559 242.062C228.226 241.388 228.059 240.598 228.059 239.693C228.059 238.799 228.226 238.011 228.559 237.33C228.896 236.648 229.366 236.116 229.968 235.733C230.574 235.35 231.283 235.159 232.093 235.159C232.586 235.159 233.063 235.241 233.525 235.403C233.987 235.566 234.402 235.822 234.769 236.17C235.137 236.519 235.427 236.972 235.639 237.528C235.851 238.081 235.957 238.754 235.957 239.545V240.148H229.019V238.875H234.292C234.292 238.428 234.201 238.032 234.019 237.688C233.838 237.339 233.582 237.064 233.252 236.864C232.927 236.663 232.544 236.562 232.105 236.562C231.627 236.562 231.211 236.68 230.855 236.915C230.502 237.146 230.23 237.449 230.036 237.824C229.847 238.195 229.752 238.598 229.752 239.034V240.028C229.752 240.612 229.855 241.108 230.059 241.517C230.268 241.926 230.557 242.239 230.929 242.455C231.3 242.667 231.733 242.773 232.23 242.773C232.552 242.773 232.845 242.727 233.11 242.636C233.375 242.542 233.605 242.402 233.798 242.216C233.991 242.03 234.139 241.801 234.241 241.528L235.849 241.818C235.72 242.292 235.489 242.706 235.156 243.062C234.826 243.415 234.411 243.689 233.911 243.886C233.415 244.08 232.849 244.176 232.213 244.176ZM239.541 238.818V244H237.842V235.273H239.473V236.693H239.581C239.781 236.231 240.096 235.86 240.524 235.58C240.956 235.299 241.499 235.159 242.154 235.159C242.749 235.159 243.27 235.284 243.717 235.534C244.164 235.78 244.51 236.148 244.757 236.636C245.003 237.125 245.126 237.729 245.126 238.449V244H243.427V238.653C243.427 238.021 243.262 237.527 242.933 237.17C242.603 236.811 242.151 236.631 241.575 236.631C241.181 236.631 240.831 236.716 240.524 236.886C240.221 237.057 239.98 237.307 239.802 237.636C239.628 237.962 239.541 238.356 239.541 238.818ZM251.478 235.273V236.636H246.711V235.273H251.478ZM247.99 233.182H249.688V241.438C249.688 241.767 249.738 242.015 249.836 242.182C249.935 242.345 250.062 242.456 250.217 242.517C250.376 242.574 250.548 242.602 250.734 242.602C250.87 242.602 250.99 242.593 251.092 242.574C251.194 242.555 251.274 242.54 251.331 242.528L251.637 243.932C251.539 243.97 251.399 244.008 251.217 244.045C251.035 244.087 250.808 244.11 250.535 244.114C250.088 244.121 249.671 244.042 249.285 243.875C248.899 243.708 248.586 243.451 248.348 243.102C248.109 242.754 247.99 242.316 247.99 241.79V233.182ZM259.757 237.403L258.217 237.676C258.152 237.479 258.05 237.292 257.91 237.114C257.774 236.936 257.588 236.79 257.353 236.676C257.118 236.562 256.825 236.506 256.473 236.506C255.991 236.506 255.59 236.614 255.268 236.83C254.946 237.042 254.785 237.316 254.785 237.653C254.785 237.945 254.893 238.18 255.109 238.358C255.325 238.536 255.673 238.682 256.154 238.795L257.541 239.114C258.344 239.299 258.942 239.585 259.336 239.972C259.73 240.358 259.927 240.86 259.927 241.477C259.927 242 259.776 242.466 259.473 242.875C259.173 243.28 258.755 243.598 258.217 243.83C257.683 244.061 257.063 244.176 256.359 244.176C255.382 244.176 254.584 243.968 253.967 243.551C253.349 243.131 252.971 242.534 252.831 241.761L254.473 241.511C254.575 241.939 254.785 242.263 255.103 242.483C255.421 242.699 255.836 242.807 256.348 242.807C256.904 242.807 257.349 242.691 257.683 242.46C258.016 242.225 258.183 241.939 258.183 241.602C258.183 241.33 258.081 241.1 257.876 240.915C257.675 240.729 257.366 240.589 256.95 240.494L255.473 240.17C254.658 239.985 254.056 239.689 253.666 239.284C253.279 238.879 253.086 238.366 253.086 237.744C253.086 237.229 253.23 236.778 253.518 236.392C253.806 236.006 254.204 235.705 254.711 235.489C255.219 235.269 255.8 235.159 256.456 235.159C257.399 235.159 258.141 235.364 258.683 235.773C259.224 236.178 259.582 236.722 259.757 237.403Z" fill="black"/>
<path d="M289.528 220C289.528 213.373 294.901 208 301.528 208H416.528C423.155 208 428.528 213.373 428.528 220V256C428.528 262.627 423.155 268 416.528 268H301.528C294.901 268 289.528 262.627 289.528 256V220Z" fill="white"/>
<path d="M305.528 243.784H316.728V232.584H305.528V243.784Z" fill="black"/>
</g>

<mask id="mask3_3_2127" style="mask-type:alpha" maskUnits="userSpaceOnUse" x="288" y="76" width="1152" height="60">
<rect width="1152" height="60" transform="translate(288 76)" fill="url(#paint3_linear_3_2127)"/>
</mask>

<defs>
<linearGradient id="paint0_linear_3_2127" x1="0" y1="30" x2="1152" y2="30" gradientUnits="userSpaceOnUse">
<stop stop-opacity="0"/>
<stop offset="0.04"/>
<stop offset="0.96"/>
<stop offset="1" stop-opacity="0"/>
</linearGradient>
<linearGradient id="paint1_linear_3_2127" x1="0" y1="30" x2="1152" y2="30" gradientUnits="userSpaceOnUse">
<stop stop-opacity="0"/>
<stop offset="0.04"/>
<stop offset="0.96"/>
<stop offset="1" stop-opacity="0"/>
</linearGradient>
<linearGradient id="paint2_linear_3_2127" x1="0" y1="30" x2="1152" y2="30" gradientUnits="userSpaceOnUse">
<stop stop-opacity="0"/>
<stop offset="0.04"/>
<stop offset="0.96"/>
<stop offset="1" stop-opacity="0"/>
</linearGradient>
<linearGradient id="paint3_linear_3_2127" x1="0" y1="30" x2="1152" y2="30" gradientUnits="userSpaceOnUse">
<stop stop-opacity="0"/>
<stop offset="0.04"/>
<stop offset="0.96"/>
<stop offset="1" stop-opacity="0"/>
</linearGradient>
<linearGradient id="paint4_linear_3_2127" x1="0" y1="30" x2="1152" y2="30" gradientUnits="userSpaceOnUse">
<stop stop-opacity="0"/>
<stop offset="0.04"/>
<stop offset="0.96"/>
<stop offset="1" stop-opacity="0"/>
</linearGradient>
<linearGradient id="paint5_linear_3_2127" x1="0" y1="30" x2="1152" y2="30" gradientUnits="userSpaceOnUse">
<stop stop-opacity="0"/>
<stop offset="0.04"/>
<stop offset="0.96"/>
<stop offset="1" stop-opacity="0"/>
</linearGradient>
</defs>
</svg>
